<?xml version="1.0" encoding="UTF-8"?>
<svg version="1.1" xmlns="http://www.w3.org/2000/svg" width="1024" height="1024">
<path d="M0 0 C337.92 0 675.84 0 1024 0 C1024 337.92 1024 675.84 1024 1024 C686.08 1024 348.16 1024 0 1024 C0 686.08 0 348.16 0 0 Z " fill="#E2E3E3" transform="translate(0,0)"/>
<path d="M0 0 C1.18722656 0.42539062 2.37445313 0.85078125 3.59765625 1.2890625 C23.55420196 8.61813603 39.19391539 22.04644839 49 41 C49.47695313 41.88816406 49.95390625 42.77632813 50.4453125 43.69140625 C59.74205241 62.36838973 59.27259648 80.29807936 54 100 C53.52626953 101.83498047 53.52626953 101.83498047 53.04296875 103.70703125 C49.51946576 115.67638409 43.22858063 126.26315051 37 137 C36.53255371 137.80937012 36.06510742 138.61874023 35.58349609 139.45263672 C29.18139446 150.45242231 22.05390868 160.819577 14.46337891 171.02978516 C13.18872943 172.74590482 11.92718891 174.47174586 10.66796875 176.19921875 C4.66235481 184.36640802 -1.74356197 192.20360498 -8.27636719 199.95214844 C-9.3925913 201.27833651 -10.50301962 202.60943349 -11.60644531 203.94628906 C-13.05122587 205.69056348 -14.52020841 207.41041136 -16 209.125 C-17.2375 210.58292969 -17.2375 210.58292969 -18.5 212.0703125 C-21 214 -21 214 -23.95703125 214.16015625 C-27.83733008 212.68076119 -30.04309627 210.38823517 -32.6875 207.3125 C-33.20513916 206.73016602 -33.72277832 206.14783203 -34.25610352 205.54785156 C-39.26369668 199.84711051 -43.9592568 193.90871319 -48.55957031 187.87744141 C-50.05315608 185.93071691 -51.56760839 184.00169262 -53.0859375 182.07421875 C-79.03375937 148.94175971 -109.02314881 106.75758053 -103.71142578 62.60107422 C-100.42344666 43.01001473 -88.68722704 24.99879339 -73 13 C-52.73145471 -1.08318847 -24.0760889 -9.51595787 0 0 Z " fill="#1160AC" transform="translate(317,395)"/>
<path d="M0 0 C1.20269531 -0.00257813 2.40539062 -0.00515625 3.64453125 -0.0078125 C4.90652344 -0.00007813 6.16851562 0.00765625 7.46875 0.015625 C8.73074219 0.00789063 9.99273437 0.00015625 11.29296875 -0.0078125 C13.09701172 -0.00394531 13.09701172 -0.00394531 14.9375 0 C16.04544922 0.00225586 17.15339844 0.00451172 18.29492188 0.00683594 C20.96875 0.265625 20.96875 0.265625 22.96875 2.265625 C23.19580078 4.97119141 23.19580078 4.97119141 23.1640625 8.3671875 C23.15761719 9.57890625 23.15117187 10.790625 23.14453125 12.0390625 C23.12777344 13.31007813 23.11101562 14.58109375 23.09375 15.890625 C23.08472656 17.169375 23.07570313 18.448125 23.06640625 19.765625 C23.04277303 22.93247667 23.00982629 26.09895924 22.96875 29.265625 C23.78142334 29.26038818 24.59409668 29.25515137 25.43139648 29.24975586 C29.08967322 29.22905506 32.74793767 29.21598697 36.40625 29.203125 C37.68564453 29.19474609 38.96503906 29.18636719 40.28320312 29.17773438 C42.10561523 29.17290039 42.10561523 29.17290039 43.96484375 29.16796875 C45.09075928 29.16273193 46.2166748 29.15749512 47.37670898 29.15209961 C49.96875 29.265625 49.96875 29.265625 50.96875 30.265625 C51.06858058 32.25319528 51.09955753 34.2443002 51.1015625 36.234375 C51.10285156 37.44480469 51.10414063 38.65523438 51.10546875 39.90234375 C51.10160156 41.17722656 51.09773438 42.45210938 51.09375 43.765625 C51.09761719 45.04050781 51.10148437 46.31539063 51.10546875 47.62890625 C51.10417969 48.83933594 51.10289062 50.04976563 51.1015625 51.296875 C51.10043457 52.41642578 51.09930664 53.53597656 51.09814453 54.68945312 C50.96875 57.265625 50.96875 57.265625 49.96875 58.265625 C47.89612924 58.35329612 45.82054706 58.37258373 43.74609375 58.36328125 C42.48603516 58.36005859 41.22597656 58.35683594 39.92773438 58.35351562 C38.58723891 58.34515903 37.24674412 58.33669407 35.90625 58.328125 C34.56185058 58.3231116 33.2174494 58.31854842 31.87304688 58.31445312 C28.57157059 58.30261988 25.27018197 58.28613471 21.96875 58.265625 C21.98446045 59.52221924 21.98446045 59.52221924 22.00048828 60.80419922 C22.03455019 63.90900664 22.05963911 67.01371892 22.07861328 70.11865234 C22.09363107 72.1247386 22.11903981 74.13073824 22.14453125 76.13671875 C22.15419922 78.02197266 22.15419922 78.02197266 22.1640625 79.9453125 C22.17977295 81.68917236 22.17977295 81.68917236 22.19580078 83.46826172 C21.96875 86.265625 21.96875 86.265625 19.96875 88.265625 C15.65317601 88.72468521 11.30590845 88.58963551 6.96875 88.578125 C5.14730469 88.60229492 5.14730469 88.60229492 3.2890625 88.62695312 C2.13148438 88.62759766 0.97390625 88.62824219 -0.21875 88.62890625 C-1.81783203 88.63337769 -1.81783203 88.63337769 -3.44921875 88.63793945 C-4.30128906 88.51507568 -5.15335937 88.39221191 -6.03125 88.265625 C-8.39133817 84.72549275 -8.26588644 83.25440545 -8.2265625 79.06640625 C-8.22156738 77.97755127 -8.21657227 76.88869629 -8.21142578 75.7668457 C-8.19321777 74.38456787 -8.17500977 73.00229004 -8.15625 71.578125 C-8.115 67.185 -8.07375 62.791875 -8.03125 58.265625 C-17.27125 58.265625 -26.51125 58.265625 -36.03125 58.265625 C-38.14814593 54.03183314 -37.21618005 48.41722718 -37.21875 43.765625 C-37.23099609 42.59902344 -37.24324219 41.43242187 -37.25585938 40.23046875 C-37.25779297 39.11800781 -37.25972656 38.00554687 -37.26171875 36.859375 C-37.26582764 35.83521484 -37.26993652 34.81105469 -37.27416992 33.75585938 C-37.03125 31.265625 -37.03125 31.265625 -35.03125 29.265625 C-32.32568359 29.03857422 -32.32568359 29.03857422 -28.9296875 29.0703125 C-27.11210937 29.07998047 -27.11210937 29.07998047 -25.2578125 29.08984375 C-23.98679687 29.10660156 -22.71578125 29.12335938 -21.40625 29.140625 C-20.1275 29.14964844 -18.84875 29.15867187 -17.53125 29.16796875 C-14.36439833 29.19160197 -11.19791576 29.22454871 -8.03125 29.265625 C-8.04172363 28.45818848 -8.05219727 27.65075195 -8.06298828 26.81884766 C-8.10444831 23.17613818 -8.13054438 19.53347825 -8.15625 15.890625 C-8.17300781 14.61960937 -8.18976563 13.34859375 -8.20703125 12.0390625 C-8.21347656 10.82734375 -8.21992188 9.615625 -8.2265625 8.3671875 C-8.23703613 7.24650879 -8.24750977 6.12583008 -8.25830078 4.97119141 C-7.8028195 -0.45638226 -4.63926671 0.00944586 0 0 Z " fill="#E0E2E3" transform="translate(286.03125,429.734375)"/>
<path d="M0 0 C5.0325 -0.103125 10.065 -0.20625 15.25 -0.3125 C17.59206543 -0.38078003 17.59206543 -0.38078003 19.98144531 -0.45043945 C30.58498706 -0.55475203 39.85739508 0.97295529 48 8.3125 C54.6005007 15.66964346 56.42996826 23.5253578 56.33984375 33.21875 C55.62081323 41.21899761 52.43334174 49.12727255 46.1940918 54.41503906 C36.55927857 61.37500428 26.66956581 61.64542336 15.25 61.3125 C10.2175 61.209375 5.185 61.10625 0 61 C0 40.87 0 20.74 0 0 Z " fill="#414B4E" transform="translate(411,474)"/>
<path d="M0 0 C1.484375 1.75 1.484375 1.75 2.75 4 C3.17796875 4.7425 3.6059375 5.485 4.046875 6.25 C4.36140625 6.8275 4.6759375 7.405 5 8 C4.40574219 8.15557373 3.81148438 8.31114746 3.19921875 8.47143555 C0.46229238 9.19636987 -2.2686716 9.94176347 -5 10.6875 C-6.40185547 11.05391602 -6.40185547 11.05391602 -7.83203125 11.42773438 C-13.7242862 13.05531529 -19.29804748 14.94829254 -24 19 C-25.41690945 21.95368624 -25.41690945 21.95368624 -24 25 C-17.62689895 31.81262526 -7.76079209 33.28700124 1 35 C1.80163574 35.17877686 2.60327148 35.35755371 3.42919922 35.54174805 C12.77137092 37.41134829 22.11779485 37.33733885 31.60546875 37.31567383 C34.46654228 37.31253669 37.32655526 37.3359599 40.1875 37.36132812 C58.96203719 37.42644657 83.31012707 37.26970395 98 24 C97.96219702 21.62766389 97.96219702 21.62766389 97 19 C89.10095341 12.14030165 78.05386536 10.33349698 68 9 C71.125 2.75 71.125 2.75 73 1 C84.53581357 0.35774914 95.42228936 3.86641674 105.6875 8.875 C106.34621094 9.19017578 107.00492188 9.50535156 107.68359375 9.83007812 C112.25974696 12.1890662 115.03974497 14.76867501 118 19 C118.71813907 24.11674086 117.94382267 26.84324371 115 31 C112.87109375 32.66015625 112.87109375 32.66015625 110.4375 34.0625 C109.65246094 34.52785156 108.86742187 34.99320313 108.05859375 35.47265625 C70.84485503 54.05576205 15.48141718 53.08648797 -23.4921875 40.60546875 C-31.63390064 37.80982026 -39.37392759 34.55591828 -44 27 C-45.06938657 23.19031036 -45.52982148 21.11559771 -43.81640625 17.5078125 C-35.45043794 5.95737883 -13.75504659 0 0 0 Z " fill="#1962AD" transform="translate(257,584)"/>
<path d="M0 0 C3.63 0 7.26 0 11 0 C11 20.79 11 41.58 11 63 C7.7 63 4.4 63 1 63 C0.67 61.35 0.34 59.7 0 58 C-1.3921875 59.2065625 -1.3921875 59.2065625 -2.8125 60.4375 C-7.47847534 64.4813453 -12.08287971 64.33884133 -18.05078125 64.28125 C-23.21711378 63.78856663 -25.75106506 61.32030265 -29.1875 57.6875 C-34.55820776 49.72403677 -35.05852184 42.55723084 -34 33 C-32.21880189 27.1698747 -28.53982496 22.47342316 -23.51171875 19.03515625 C-18.26918818 16.87454878 -12.51377871 17.01493977 -7 18 C-5.02 19.32 -3.04 20.64 -1 22 C-0.67 14.74 -0.34 7.48 0 0 Z " fill="#29B3E4" transform="translate(734,472)"/>
<path d="M0 0 C16.48375362 5.09584836 30.1265783 19.17380722 38.4296875 33.96484375 C39.20699219 35.46724609 39.20699219 35.46724609 40 37 C40.47695313 37.88816406 40.95390625 38.77632813 41.4453125 39.69140625 C50.74205241 58.36838973 50.27259648 76.29807936 45 96 C44.68417969 97.22332031 44.36835938 98.44664062 44.04296875 99.70703125 C40.51946576 111.67638409 34.22858063 122.26315051 28 133 C27.53255371 133.80937012 27.06510742 134.61874023 26.58349609 135.45263672 C20.18139446 146.45242231 13.05390868 156.819577 5.46337891 167.02978516 C4.18872943 168.74590482 2.92718891 170.47174586 1.66796875 172.19921875 C-4.33764519 180.36640802 -10.74356197 188.20360498 -17.27636719 195.95214844 C-18.3925913 197.27833651 -19.50301962 198.60943349 -20.60644531 199.94628906 C-22.05122587 201.69056348 -23.52020841 203.41041136 -25 205.125 C-25.825 206.09695313 -26.65 207.06890625 -27.5 208.0703125 C-30 210 -30 210 -33.1875 209.9921875 C-36 209 -36 209 -38 206 C-37.25878906 205.44054687 -36.51757812 204.88109375 -35.75390625 204.3046875 C-33.08236684 202.06893112 -31.0898265 199.85376847 -28.9375 197.125 C-26.42799827 193.9819112 -23.91691221 190.87480027 -21.2421875 187.87109375 C9.98975956 152.72394062 40.55334205 105.46870341 38 57 C36.59174943 43.36367271 29.22816767 29.81851675 21 19 C20.23816406 17.99259766 20.23816406 17.99259766 19.4609375 16.96484375 C15.40483243 11.97641122 10.73554466 8.39891553 5.453125 4.76171875 C3.40319185 3.28955338 1.70502308 1.84710833 0 0 Z " fill="#27B4E7" transform="translate(326,399)"/>
<path d="M0 0 C4.85351595 3.903915 8.41611407 9.37263647 9.1484375 15.66015625 C9.4517506 23.7679487 7.74016756 30.14536623 2.125 36.19921875 C-4.59044583 42.17654446 -10.40448121 42.92540425 -19.19140625 42.69140625 C-26.0886506 42.02702422 -29.19794474 39.23955526 -33.9375 34.5 C-37.99756033 28.58391209 -40.27249019 22.59772843 -39.125 15.3125 C-37.16906437 7.14972864 -33.02242845 2.0126216 -26.125 -2.6875 C-16.5592147 -6.78712227 -8.82358172 -4.76473413 0 0 Z " fill="#454F51" transform="translate(512.125,493.6875)"/>
<path d="M0 0 C4.30258532 4.04899483 6.78514213 7.46285533 9 13 C9 16.63 9 20.26 9 24 C-1.89 24 -12.78 24 -24 24 C-21.0362731 30.40184012 -21.0362731 30.40184012 -16 33 C-9.31371425 33.78842879 -3.92780914 33.16149821 2 30 C3.32 31.65 4.64 33.3 6 35 C4.7754327 38.80976495 2.45401444 40.26830564 -0.96948242 42.14453125 C-4.4102011 43.59412584 -7.67962742 43.68110383 -11.375 43.625 C-12.12233398 43.61734619 -12.86966797 43.60969238 -13.63964844 43.60180664 C-20.06666171 43.34369085 -24.4443234 41.68906352 -29 37 C-34.8308873 30.41902283 -35.37478865 24.81236871 -35.26953125 16.2578125 C-34.71620817 9.56982043 -31.98078754 5.66698897 -27.1875 1.125 C-18.95134169 -5.55831516 -8.59557595 -6.15930492 0 0 Z " fill="#2FB2E3" transform="translate(789,493)"/>
<path d="M0 0 C14.52 0 29.04 0 44 0 C44 3.3 44 6.6 44 10 C33.11 10 22.22 10 11 10 C11 15.28 11 20.56 11 26 C20.9 26 30.8 26 41 26 C41 29.3 41 32.6 41 36 C31.1 36 21.2 36 11 36 C11 44.25 11 52.5 11 61 C7.37 61 3.74 61 0 61 C0 40.87 0 20.74 0 0 Z " fill="#28B3E5" transform="translate(576,474)"/>
<path d="M0 0 C18 0 18 0 26 4 C32.19405748 10.46336433 33.52149966 14.90402169 33.3828125 23.73046875 C32.67339697 29.78945646 29.8098957 33.28059908 25.5 37.375 C16.73700472 43.07094693 12.19789296 41 0 41 C0 27.47 0 13.94 0 0 Z " fill="#DEDFDF" transform="translate(422,484)"/>
<path d="M0 0 C4.04271949 1.50551179 6.76131803 4.34741362 9 8 C10.23180134 11.69540402 10.12412112 15.10303378 10.09765625 18.94921875 C10.0962413 19.72183548 10.09482635 20.49445221 10.09336853 21.29048157 C10.08777466 23.75619389 10.07522333 26.22181515 10.0625 28.6875 C10.05748421 30.36002473 10.05292144 32.03255088 10.04882812 33.70507812 C10.03780724 37.80342046 10.02054684 41.90169479 10 46 C6.37 46 2.74 46 -1 46 C-1.00410889 45.08710205 -1.00821777 44.1742041 -1.01245117 43.23364258 C-1.03949402 39.83165222 -1.08863862 36.43144939 -1.15258789 33.0300293 C-1.17571993 31.56074053 -1.1901524 30.09128708 -1.19555664 28.62182617 C-1.20488279 26.50335655 -1.24594127 24.38745935 -1.29296875 22.26953125 C-1.3086792 20.99698486 -1.32438965 19.72443848 -1.34057617 18.41333008 C-2.16616936 14.13986901 -3.60215891 12.64352347 -7 10 C-11.07002163 9.34588938 -13.11910909 9.47733538 -16.67456055 11.58691406 C-19.79499424 14.82495781 -19.6523452 16.72407638 -19.70703125 21.171875 C-19.72971321 22.1955014 -19.72971321 22.1955014 -19.75285339 23.23980713 C-19.79569394 25.41020845 -19.80456339 27.57921823 -19.8125 29.75 C-19.83564763 31.22529732 -19.86101355 32.70056161 -19.88867188 34.17578125 C-19.95148374 37.78382732 -19.98385064 41.39140916 -20 45 C-23.63 45 -27.26 45 -31 45 C-31 30.48 -31 15.96 -31 1 C-27.7 1 -24.4 1 -21 1 C-20.67 2.32 -20.34 3.64 -20 5 C-19.113125 4.175 -18.22625 3.35 -17.3125 2.5 C-12.05931968 -1.26299243 -6.18613635 -0.86781063 0 0 Z " fill="#2BB3E4" transform="translate(682,490)"/>
<path d="M0 0 C1.30298038 0.66580865 2.59739092 1.349216 3.875 2.0625 C4.535 2.3925 5.195 2.7225 5.875 3.0625 C5.40297514 7.31072374 2.90844482 9.26239709 -0.125 12.0625 C-1.053125 11.32 -1.053125 11.32 -2 10.5625 C-6.40599057 8.44762453 -10.31993301 8.21815915 -15.125 9.0625 C-18.24386578 10.75345133 -20.51518854 12.84287709 -22.125 16.0625 C-22.65709766 21.40092242 -22.76557432 25.75847371 -20.375 30.625 C-17.1841124 34.0817949 -15.61756823 34.91616978 -10.9375 35.375 C-6.32533686 34.99695384 -2.42640721 33.70113132 1.875 32.0625 C3.9375 34.875 3.9375 34.875 5.875 38.0625 C4.67873809 41.65128574 3.19006428 42.49341758 -0.07470703 44.23779297 C-3.55262233 45.63674485 -6.85109016 45.70055667 -10.5625 45.625 C-11.31241211 45.61549316 -12.06232422 45.60598633 -12.83496094 45.59619141 C-19.76347487 45.33482357 -23.77885626 43.45198757 -28.6328125 38.53515625 C-34.37883037 32.08319904 -34.72721295 26.28310321 -34.5 17.9921875 C-33.75984092 10.23593715 -29.72387783 6.14834496 -23.96875 1.2890625 C-16.8123102 -3.4717894 -7.72180493 -3.43607825 0 0 Z " fill="#454E50" transform="translate(561.125,490.9375)"/>
<path d="M0 0 C0.66 0 1.32 0 2 0 C2.51046875 1.17755859 2.51046875 1.17755859 3.03125 2.37890625 C8.05320028 13.26425062 13.78827324 18.82155554 25 23 C25 23.66 25 24.32 25 25 C24.21496094 25.3403125 23.42992187 25.680625 22.62109375 26.03125 C11.73574938 31.05320028 6.17844446 36.78827324 2 48 C1.34 48 0.68 48 0 48 C-0.3403125 47.21496094 -0.680625 46.42992187 -1.03125 45.62109375 C-6.05320028 34.73574938 -11.78827324 29.17844446 -23 25 C-23 24.34 -23 23.68 -23 23 C-22.21496094 22.6596875 -21.42992187 22.319375 -20.62109375 21.96875 C-9.73574938 16.94679972 -4.17844446 11.21172676 0 0 Z " fill="#F1F1F1" transform="translate(967,944)"/>
<path d="M0 0 C1 1 1 1 1.09765625 3.50390625 C1.08605469 4.51324219 1.07445312 5.52257812 1.0625 6.5625 C1.05347656 7.57441406 1.04445313 8.58632813 1.03515625 9.62890625 C1.02355469 10.41136719 1.01195312 11.19382812 1 12 C0.33613281 12.00257813 -0.32773437 12.00515625 -1.01171875 12.0078125 C-1.89472656 12.04648437 -2.77773438 12.08515625 -3.6875 12.125 C-4.99267578 12.15980469 -4.99267578 12.15980469 -6.32421875 12.1953125 C-9.34650092 13.1042032 -11.10620334 14.29550732 -13.02026367 16.82470703 C-15.26073212 21.79918344 -14.78738262 27.51662466 -14.8125 32.875 C-14.83763672 34.13570312 -14.86277344 35.39640625 -14.88867188 36.6953125 C-14.94741953 39.79718887 -14.98379231 42.89765777 -15 46 C-18.63 46 -22.26 46 -26 46 C-26 31.48 -26 16.96 -26 2 C-22.7 2 -19.4 2 -16 2 C-16 4.31 -16 6.62 -16 9 C-15.34 9 -14.68 9 -14 9 C-13.7215625 7.88625 -13.7215625 7.88625 -13.4375 6.75 C-10.80659083 1.71695638 -5.68485857 -0.83600861 0 0 Z " fill="#2CB2E4" transform="translate(832,489)"/>
<path d="M0 0 C3.8026029 2.0050088 5.61790841 3.42686262 8 7 C8.6280761 12.47010462 9.30547838 18.85166414 6.25 23.6875 C2.71309266 27.32265476 1.19046432 27.9055187 -3.9375 28.3125 C-7.72776772 28.19273318 -10.05155934 27.52723485 -13 25 C-16.74166742 19.83907943 -16.83939606 14.14036463 -16 8 C-12.24568214 0.62082351 -7.88299714 -1.11653372 0 0 Z " fill="#DEDFDF" transform="translate(501,499)"/>
<path d="M0 0 C5.5 3 5.5 3 7 6 C7.2037399 8.62242356 7.32356725 11.18709203 7.375 13.8125 C7.41238281 14.52470703 7.44976563 15.23691406 7.48828125 15.97070312 C7.55520969 19.99012807 7.18675003 21.76422027 4.6640625 24.94921875 C0.49799472 28.15623574 -2.82774779 28.52599175 -8 28 C-12.15739322 25.25455164 -14.88190761 22.91960651 -16 18 C-16.56831638 13.2137105 -16.49988397 9.96406195 -14.25 5.625 C-9.97118254 0.6330463 -6.76680294 -1.20789381 0 0 Z " fill="#DFE2E2" transform="translate(727,499)"/>
<path d="M0 0 C3.63 0 7.26 0 11 0 C11 14.52 11 29.04 11 44 C7.37 44 3.74 44 0 44 C0 29.48 0 14.96 0 0 Z " fill="#26B2E5" transform="translate(628,491)"/>
<path d="M0 0 C3.8271837 2.06079122 6.63072705 3.75525387 8 8 C8 8.99 8 9.98 8 11 C0.74 11 -6.52 11 -14 11 C-12.89252748 5.46263739 -12.05400166 4.45782886 -7.8984375 1.17578125 C-5.02692235 -0.60266743 -3.28549073 -0.69904058 0 0 Z " fill="#D9E2E4" transform="translate(779,498)"/>
<path d="M0 0 C1.19109375 0.00773437 1.19109375 0.00773437 2.40625 0.015625 C3.2003125 0.01046875 3.994375 0.0053125 4.8125 0 C6.90625 0.265625 6.90625 0.265625 8.90625 2.265625 C9.171875 4.140625 9.171875 4.140625 9.15625 6.265625 C9.16140625 6.966875 9.1665625 7.668125 9.171875 8.390625 C8.90625 10.265625 8.90625 10.265625 6.90625 12.265625 C4.8125 12.53125 4.8125 12.53125 2.40625 12.515625 C1.6121875 12.52078125 0.818125 12.5259375 0 12.53125 C-2.09375 12.265625 -2.09375 12.265625 -4.09375 10.265625 C-4.359375 8.390625 -4.359375 8.390625 -4.34375 6.265625 C-4.34890625 5.564375 -4.3540625 4.863125 -4.359375 4.140625 C-3.95305532 1.27248606 -2.8267862 0.35862213 0 0 Z " fill="#2CB2E6" transform="translate(631.09375,471.734375)"/>
<path d="M0 0 C4.32152118 1.28753286 7.83881582 2.93264457 11.625 5.375 C12.54539062 5.96023438 13.46578125 6.54546875 14.4140625 7.1484375 C16.88642824 8.91868125 18.92321816 10.78671606 21 13 C20.67 13.66 20.34 14.32 20 15 C16.34166625 13.40754884 13.59964596 11.12785629 10.5625 8.5625 C7.16221814 5.69188652 3.82207132 3.268271 0 1 C0 0.67 0 0.34 0 0 Z " fill="#27BEF5" transform="translate(326,399)"/>
<path d="M0 0 C0.99 0.33 1.98 0.66 3 1 C0.03 3.97 -2.94 6.94 -6 10 C-6.66 9.34 -7.32 8.68 -8 8 C-5.36 5.36 -2.72 2.72 0 0 Z " fill="#1F6AB1" transform="translate(240,411)"/>
</svg>
